<?xml version="1.0" standalone="no"?>
<!DOCTYPE svg PUBLIC "-//W3C//DTD SVG 20010904//EN"
 "http://www.w3.org/TR/2001/REC-SVG-20010904/DTD/svg10.dtd">
<svg version="1.0" xmlns="http://www.w3.org/2000/svg"
 width="750.000000pt" height="750.000000pt" viewBox="0 0 750.000000 750.000000"
 preserveAspectRatio="xMidYMid meet">
<metadata>
Created by potrace 1.11, written by Peter Selinger 2001-2013
</metadata>
<g transform="translate(0.000000,750.000000) scale(0.100000,-0.100000)"
fill="#000000" stroke="none">
<path d="M5290 7469 c-17 -17 -37 -44 -46 -60 -8 -16 -19 -29 -25 -29 -13 0
-173 -168 -177 -187 -2 -8 -12 -23 -23 -34 -10 -10 -16 -24 -14 -31 3 -7 -16
-39 -42 -72 -27 -32 -60 -77 -74 -100 -29 -46 -121 -173 -142 -196 -8 -8 -20
-26 -26 -38 -12 -22 -11 -23 10 -17 36 12 79 47 95 78 8 15 18 27 23 27 5 0
11 9 14 20 3 11 10 20 16 20 17 0 13 -19 -9 -37 -11 -10 -20 -26 -20 -36 0
-23 -64 -129 -102 -169 -16 -16 -28 -33 -28 -38 0 -4 -7 -10 -15 -14 -8 -3
-15 -16 -15 -28 0 -13 -11 -43 -25 -67 -14 -23 -25 -50 -25 -60 0 -9 -11 -38
-25 -65 -14 -27 -25 -66 -25 -85 0 -20 -5 -52 -11 -71 -21 -66 -31 -115 -34
-160 -7 -99 -14 -280 -10 -280 2 0 24 9 50 20 55 23 133 25 190 5 58 -21 73
-19 91 17 17 32 52 67 68 68 5 0 3 -7 -4 -15 -9 -10 -9 -15 -1 -15 6 0 10 -5
9 -11 -2 -7 12 -16 30 -21 31 -8 42 -30 22 -43 -5 -3 -10 -16 -10 -28 0 -16 3
-18 12 -9 7 7 17 12 22 12 6 0 5 -5 -2 -12 -16 -16 -15 -28 2 -28 8 0 17 7 20
16 3 8 10 12 16 9 6 -4 5 -12 -5 -21 -15 -16 -20 -46 -8 -57 3 -4 11 0 17 9
14 19 42 9 49 -17 8 -30 63 -6 83 37 9 19 17 34 19 34 1 0 2 -18 2 -40 0 -49
-21 -64 -87 -62 -32 2 -41 0 -30 -7 12 -8 12 -13 2 -23 -18 -18 -15 -28 11
-28 21 -1 21 -1 4 -14 -18 -14 -18 -14 0 -19 16 -4 16 -5 1 -6 -16 -1 -28 -41
-12 -41 19 0 74 56 74 75 0 13 7 25 15 29 8 3 15 15 15 26 0 11 6 20 14 20 19
0 29 31 21 63 -5 17 -2 26 10 31 11 4 14 12 10 26 -4 14 2 28 20 46 16 16 24
32 20 43 -6 18 28 61 48 61 7 0 18 9 24 20 11 16 9 22 -10 36 -15 11 -16 15
-5 11 11 -4 21 1 28 13 5 10 20 22 32 26 13 4 38 18 56 32 28 21 35 23 43 11
7 -11 9 -10 9 6 0 18 1 18 16 3 13 -13 22 -14 40 -6 13 6 24 14 24 18 0 14 91
2 109 -14 13 -12 20 -13 29 -4 9 9 16 7 30 -5 12 -11 26 -15 37 -11 15 6 16 4
7 -13 -14 -25 -5 -35 19 -22 15 8 17 6 12 -7 -5 -14 -2 -16 15 -12 17 5 22 2
22 -14 0 -10 5 -16 10 -13 6 3 13 -1 16 -9 3 -9 12 -16 20 -16 8 0 14 -9 14
-20 0 -22 15 -27 26 -8 5 8 10 6 14 -8 6 -15 17 -19 54 -20 25 -1 49 2 52 7 9
14 24 10 24 -6 0 -16 17 -15 87 7 46 13 76 2 67 -25 -5 -18 -4 -20 7 -9 18 16
48 17 31 0 -7 -7 -12 -19 -12 -27 0 -12 3 -12 18 2 15 13 45 16 96 8 6 0 1 -7
-10 -15 -16 -13 -17 -15 -3 -21 19 -7 69 11 69 25 0 5 5 10 11 10 6 0 9 -7 5
-15 -3 -9 0 -15 10 -15 11 0 13 6 9 20 -5 17 1 23 31 36 l38 16 -24 14 -25 13
25 0 c14 1 32 -4 40 -9 11 -7 12 -10 2 -10 -8 0 -12 -6 -9 -12 2 -7 -6 -27
-19 -44 -24 -33 -23 -44 8 -44 10 0 18 -4 18 -10 0 -15 -41 -12 -72 4 -26 14
-28 13 -28 -5 0 -13 7 -19 23 -19 12 0 35 -11 51 -25 34 -29 31 -28 57 -14 18
9 20 8 17 -13 -3 -20 1 -23 24 -20 14 1 29 -2 33 -8 3 -5 -2 -10 -11 -10 -16
0 -15 -2 2 -21 14 -15 26 -19 47 -15 24 5 28 3 23 -10 -5 -13 -1 -14 23 -9 21
4 30 2 34 -10 4 -8 18 -20 32 -25 15 -6 25 -17 25 -29 0 -11 5 -23 10 -26 6
-4 8 -11 5 -16 -4 -5 1 -9 9 -9 29 0 51 -82 47 -177 -1 -20 -7 -23 -39 -23
-22 0 -52 6 -68 14 -16 8 -40 17 -54 20 -25 7 -24 7 4 -18 17 -14 33 -23 37
-20 18 11 100 -58 86 -72 -2 -3 -17 0 -32 6 -23 9 -26 8 -21 -5 7 -19 6 -19
-66 10 -34 14 -74 25 -89 25 -15 0 -38 4 -51 9 -23 9 -342 24 -438 22 -81 -2
-98 -9 -92 -36 3 -17 11 -25 26 -25 15 0 17 -3 8 -9 -17 -11 17 -21 71 -21 24
0 40 -5 43 -15 4 -8 12 -15 20 -15 8 0 22 -9 31 -19 9 -11 22 -17 30 -14 7 3
20 0 28 -7 15 -12 39 -5 30 10 -9 14 16 23 28 11 8 -8 8 -11 -1 -11 -18 0 -8
-54 14 -76 50 -51 139 -104 174 -104 23 0 25 -17 5 -44 -11 -14 -22 -17 -45
-12 -26 5 -31 3 -28 -12 2 -10 11 -16 22 -14 13 2 17 -1 13 -11 -4 -10 7 -20
34 -32 21 -10 39 -24 39 -32 0 -7 3 -13 8 -14 4 0 16 -3 27 -6 11 -3 44 -8 73
-10 46 -4 52 -3 51 14 0 10 -3 13 -6 6 -6 -16 -31 -16 -61 0 -22 12 -21 13 13
13 20 0 40 6 44 13 6 9 11 10 15 2 4 -6 15 -11 24 -11 14 0 14 2 3 9 -11 7 -7
10 15 14 l29 4 -27 2 c-16 0 -28 7 -28 15 0 9 -16 15 -46 19 -26 2 -49 9 -53
14 -3 5 -25 15 -48 23 -24 7 -43 16 -43 19 0 11 57 6 71 -6 14 -11 69 -28 134
-40 31 -6 58 -27 48 -37 -4 -3 3 -6 14 -6 23 0 53 29 53 53 0 9 5 19 10 22 15
9 29 -37 19 -57 -12 -22 5 -32 31 -18 50 27 112 74 127 96 8 13 25 24 37 24
38 0 69 12 55 21 -15 9 -9 12 44 23 15 4 25 11 22 16 -7 11 35 31 48 23 4 -2
7 3 7 11 0 9 7 16 15 16 8 0 15 -4 15 -9 0 -12 46 -41 81 -51 l29 -9 0 1270 0
1269 -1055 0 c-963 0 -1059 -1 -1088 -17 -30 -15 -31 -15 -18 0 26 32 -15 19
-49 -14z m80 -99 c0 -5 -5 -10 -11 -10 -5 0 -7 5 -4 10 3 6 8 10 11 10 2 0 4
-4 4 -10z m-3 -1402 c-3 -8 -6 -5 -6 6 -1 11 2 17 5 13 3 -3 4 -12 1 -19z
m-19 -69 c-20 -13 -28 -11 -22 5 3 8 12 12 21 9 12 -5 12 -7 1 -14z m1292 -39
c0 -5 -9 -10 -20 -10 -11 0 -20 5 -20 10 0 6 9 10 20 10 11 0 20 -4 20 -10z
m-1390 -15 c0 -8 -4 -15 -10 -15 -5 0 -10 7 -10 15 0 8 5 15 10 15 6 0 10 -7
10 -15z m1230 5 c0 -5 -5 -10 -11 -10 -5 0 -7 5 -4 10 3 6 8 10 11 10 2 0 4
-4 4 -10z m460 -620 c0 -5 -2 -10 -4 -10 -3 0 -8 5 -11 10 -3 6 -1 10 4 10 6
0 11 -4 11 -10z m-215 -290 c-3 -4 -14 -10 -25 -13 -22 -6 -29 18 -7 26 16 5
38 -3 32 -13z m55 6 c0 -9 -30 -14 -35 -6 -4 6 3 10 14 10 12 0 21 -2 21 -4z"/>
<path d="M2930 6700 c0 -5 5 -10 11 -10 5 0 7 5 4 10 -3 6 -8 10 -11 10 -2 0
-4 -4 -4 -10z"/>
<path d="M4661 6614 c0 -11 3 -14 6 -6 3 7 2 16 -1 19 -3 4 -6 -2 -5 -13z"/>
<path d="M3398 6363 c7 -3 16 -2 19 1 4 3 -2 6 -13 5 -11 0 -14 -3 -6 -6z"/>
<path d="M3230 6323 c-60 -17 -231 -66 -411 -118 -126 -37 -194 -63 -167 -64
19 -1 213 50 261 68 16 6 41 11 56 11 15 0 31 4 36 9 6 5 63 25 127 45 154 46
235 87 98 49z"/>
<path d="M4556 6225 c-3 -8 -1 -15 4 -15 6 0 10 7 10 15 0 8 -2 15 -4 15 -2 0
-6 -7 -10 -15z"/>
<path d="M2430 6089 c-52 -17 -111 -37 -130 -44 -34 -14 -34 -14 -7 -14 15 -1
27 3 27 8 0 5 15 11 33 14 53 8 191 48 202 58 17 17 -28 9 -125 -22z"/>
<path d="M2218 6013 c7 -3 16 -2 19 1 4 3 -2 6 -13 5 -11 0 -14 -3 -6 -6z"/>
<path d="M5453 5973 c-7 -2 -13 -11 -13 -19 0 -17 26 -8 34 12 6 14 0 16 -21
7z"/>
<path d="M4880 5780 c0 -5 5 -10 10 -10 6 0 10 5 10 10 0 6 -4 10 -10 10 -5 0
-10 -4 -10 -10z"/>
<path d="M4549 5627 c-19 -26 -42 -93 -37 -107 4 -11 94 33 124 61 12 11 35
19 55 19 l34 0 -30 25 c-41 34 -122 35 -146 2z"/>
<path d="M4760 5507 c0 -10 -4 -17 -10 -17 -12 0 -13 -50 -1 -68 7 -12 12 -12
30 -1 27 17 28 60 1 84 -18 16 -20 16 -20 2z"/>
<path d="M4495 5480 c-16 -7 -17 -9 -3 -9 9 -1 20 4 23 9 7 11 7 11 -20 0z"/>
<path d="M4795 5314 c-5 -1 -35 -5 -66 -9 -47 -5 -58 -10 -67 -30 -20 -43 -8
-51 63 -47 49 3 65 1 65 -9 0 -8 6 -5 15 7 15 20 20 80 8 87 -5 2 -12 3 -18 1z"/>
<path d="M6720 5310 c0 -5 5 -10 11 -10 5 0 7 5 4 10 -3 6 -8 10 -11 10 -2 0
-4 -4 -4 -10z"/>
<path d="M4600 5240 c0 -5 7 -10 16 -10 8 0 12 5 9 10 -3 6 -10 10 -16 10 -5
0 -9 -4 -9 -10z"/>
<path d="M4766 5075 c-3 -8 -12 -15 -21 -15 -8 0 -15 -6 -15 -14 0 -23 16 -27
32 -8 24 27 29 40 19 46 -5 3 -11 -1 -15 -9z"/>
<path d="M6560 4900 c0 -5 7 -10 15 -10 8 0 15 5 15 10 0 6 -7 10 -15 10 -8 0
-15 -4 -15 -10z"/>
<path d="M4530 4472 c-30 -4 -59 -38 -60 -69 0 -15 -11 -27 -34 -38 -39 -19
-52 -46 -62 -134 -6 -52 -3 -66 20 -112 29 -58 33 -85 14 -91 -7 -3 -89 13
-183 34 -297 66 -339 72 -580 72 -245 0 -333 -11 -501 -65 -143 -46 -216 -93
-355 -231 -79 -79 -106 -98 -137 -98 -39 0 -412 -264 -412 -292 0 -16 -72 -72
-165 -127 -41 -25 -89 -29 -111 -10 -7 6 -32 9 -56 7 -40 -3 -43 -5 -46 -33
-1 -16 -7 -47 -13 -68 -9 -32 -8 -42 6 -57 10 -11 12 -20 6 -24 -14 -9 7 -65
36 -98 27 -28 23 -53 -8 -45 -10 3 -26 -1 -36 -9 -10 -7 -27 -14 -37 -14 -11
0 -32 -12 -47 -26 -19 -18 -41 -28 -68 -30 -21 -1 -49 -7 -60 -13 -16 -9 -29
-8 -58 5 -21 8 -56 17 -78 19 -22 2 -48 7 -57 10 -14 5 -18 2 -18 -14 0 -20
-5 -21 -103 -19 -90 1 -102 -1 -99 -15 2 -15 -6 -17 -56 -16 -36 1 -70 -5 -90
-15 -17 -9 -38 -16 -47 -16 -8 0 -23 -4 -33 -9 -9 -5 -42 -17 -72 -26 -30 -10
-62 -23 -70 -30 -19 -16 -67 -31 -147 -46 -51 -9 -62 -15 -65 -33 -2 -11 -12
-22 -23 -24 -11 -2 -27 -10 -35 -17 -16 -14 -108 -61 -177 -91 -24 -10 -43
-21 -43 -25 0 -4 -16 -14 -36 -24 -22 -10 -39 -28 -46 -46 -6 -17 -17 -29 -27
-29 -10 0 -27 -11 -39 -24 -26 -31 -94 -50 -149 -42 -23 3 -49 3 -58 0 -13 -5
-15 -139 -15 -1190 l0 -1184 3750 0 3750 0 0 1744 c0 1736 0 1745 -20 1751
-15 5 -19 12 -14 29 5 20 2 22 -30 18 -19 -2 -41 -10 -47 -18 -22 -27 -78 -16
-140 26 -32 22 -68 40 -79 40 -12 0 -50 14 -85 30 -35 17 -70 30 -77 30 -8 0
-63 20 -122 45 -60 25 -113 45 -118 45 -12 0 -350 146 -421 181 -31 16 -78 38
-105 48 -26 10 -130 59 -232 109 -102 49 -225 108 -275 130 -159 71 -490 182
-607 202 -35 6 -103 19 -153 30 -49 10 -117 21 -150 25 -73 7 -260 12 -295 7z"/>
</g>
</svg>
